#!OML:ASF H:\Terrain\Patient Classification 1\Takeo\Monday\TakeoMonday.ASF
:FULLY-SPECIFIED
:DEGREES
1488
root 9.92099 17.7224 -0.249298 -7.54928 19.7306 3.89427
lowerback -2.02934 5.79437 6.15742
upperback -0.430066 7.56166 2.45608
thorax 1.14619 3.79104 -0.62714
lowerneck -16.3494 10.5656 5.49544
upperneck 10.2108 12.4554 3.50692
head 5.83649 6.5387 1.46993
rclavicle -5.56597e-014 -9.54166e-015
rhumerus 68.088 58.0026 -24.1826
rradius 121.654
rwrist -27.4847
rhand -33.7384 37.4659
rfingers 7.12502
rthumb -6.927 7.59919
lclavicle -5.56597e-014 -9.54166e-015
lhumerus 56.7309 12.7192 61.9427
lradius 38.2453
lwrist 70.5309
lhand -21.0065 32.8752
lfingers 7.12502
lthumb 5.36809 62.7873
rfemur 11.7483 -7.90027 15.2725
rtibia 17.4323
rfoot -23.1556 -28.6904
rtoes 7.82633
lfemur 3.74353 -10.7703 -25.8277
ltibia 18.6121
lfoot -9.22655 4.95649
ltoes -10.4016
1489
root 9.91619 17.7282 -0.25312 -7.53174 19.5763 3.79692
lowerback -1.99461 5.65508 6.32337
upperback -0.987273 7.40667 2.63405
thorax 0.538922 3.69144 -0.585519
lowerneck -13.7835 10.5563 5.38393
upperneck 9.55254 12.7206 3.26054
head 5.2261 6.63745 1.26446
rclavicle -7.15625e-014 -2.22639e-014
rhumerus 66.8381 59.7896 -24.863
rradius 122.74
rwrist -27.9687
rhand -33.6791 36.745
rfingers 7.12502
rthumb -6.86978 6.87646
lclavicle -7.15625e-014 -2.22639e-014
lhumerus 55.2521 12.7159 61.9799
lradius 38.1244
lwrist 69.7802
lhand -21.1449 33.6419
lfingers 7.12502
lthumb 5.23444 63.5572
rfemur 11.6726 -7.61955 15.4697
rtibia 17.3155
rfoot -23.1591 -28.8284
rtoes 7.4111
lfemur 3.67526 -10.7639 -25.7079
ltibia 18.6635
lfoot -9.29639 5.04708
ltoes -10.5176
1490
root 9.9142 17.7232 -0.261981 -7.50072 19.5008 3.83742
lowerback -1.91826 5.86449 6.55957
upperback -0.984449 7.68647 2.20157
thorax 0.605091 3.83084 -1.14346
lowerneck -14.0433 10.5237 6.64107
upperneck 9.56505 12.4764 2.72563
head 5.38614 6.52328 0.922422
rclavicle -3.77691e-014 -7.95139e-015
rhumerus 63.8596 59.93 -27.6423
rradius 123.486
rwrist -28.1985
rhand -32.8726 36.0948
rfingers 7.12502
rthumb -6.09123 6.20232
lclavicle -3.77691e-014 -7.95139e-015
lhumerus 55.5013 12.0629 61.9082
lradius 38.1243
lwrist 69.5054
lhand -20.9644 34.0635
lfingers 7.12502
lthumb 5.40875 63.9745
rfemur 11.6594 -7.58046 15.4208
rtibia 17.1733
rfoot -23.0877 -28.8163
rtoes 6.44651
lfemur 3.64706 -10.8006 -25.7659
ltibia 18.7415
lfoot -9.28463 5.17445
ltoes -10.4202
1491
root 9.91242 17.7245 -0.274385 -7.52701 19.4124 3.70202
lowerback -1.86728 6.05652 6.93323
upperback -0.969031 7.93826 1.91341
thorax 0.70028 3.95788 -1.62481
lowerneck -14.09 10.4483 7.50845
upperneck 9.35951 12.2454 2.39192
head 5.40115 6.41274 0.674276
rclavicle 1.18277e-013 2.78299e-014
rhumerus 60.7547 60.0824 -30.513
rradius 124.011
rwrist -28.7021
rhand -31.4264 35.8427
rfingers 7.12502
rthumb -4.69485 5.91476
lclavicle 1.18277e-013 2.78299e-014
lhumerus 55.3489 11.2798 61.1559
lradius 38.2079
lwrist 70.6298
lhand -21.2265 33.3949
lfingers 7.12502
lthumb 5.15566 63.3121
rfemur 11.6112 -7.70993 15.5245
rtibia 17.1086
rfoot -23.0016 -28.6433
rtoes 6.08728
lfemur 3.62418 -10.8289 -25.6305
ltibia 18.7213
lfoot -9.183 5.33009
ltoes -10.6942
1492
root 9.90666 17.7316 -0.281507 -7.5301 19.2873 3.46111
lowerback -1.95185 5.8875 7.05231
upperback -0.891252 7.69861 2.19624
thorax 0.785133 3.84226 -1.39962
lowerneck -13.8253 10.597 7.23871
upperneck 9.17174 12.5584 2.11937
head 5.30486 6.53309 0.638167
rclavicle 1.27222e-014 -5.56597e-015
rhumerus 60.3274 60.7766 -30.7146
rradius 124.616
rwrist -29.3904
rhand -30.3885 35.596
rfingers 7.12502
rthumb -3.69268 5.64825
lclavicle 1.27222e-014 -5.56597e-015
lhumerus 54.5148 11.6927 60.7176
lradius 38.0166
lwrist 71.5291
lhand -21.8465 32.764
lfingers 7.12502
lthumb 4.55698 62.6949
rfemur 11.5158 -7.67364 15.8335
rtibia 17.0351
rfoot -22.8863 -28.6748
rtoes 6.75392
lfemur 3.52546 -10.8879 -25.3292
ltibia 18.6942
lfoot -9.22555 5.40549
ltoes -9.90058
1493
root 9.89917 17.736 -0.283245 -7.46652 19.1867 3.70926
lowerback -1.87588 5.7297 6.66326
upperback -0.898273 7.50428 2.33376
thorax 0.65339 3.7428 -1.07267
lowerneck -13.4364 10.6743 7.07556
upperneck 9.21439 12.7733 1.77065
head 5.27248 6.6099 0.556337
rclavicle 5.92378e-014 4.45278e-014
rhumerus 60.0164 61.8206 -30.7442
rradius 125.302
rwrist -29.4015
rhand -31.1606 34.6706
rfingers 7.12502
rthumb -4.43821 4.7371
lclavicle 5.92378e-014 4.45278e-014
lhumerus 53.9384 12.1901 61.1741
lradius 37.6358
lwrist 70.8825
lhand -21.9286 32.7934
lfingers 7.12502
lthumb 4.47771 62.7261
rfemur 11.6069 -7.55998 15.6097
rtibia 16.8558
rfoot -22.8085 -28.6768
rtoes 7.91037
lfemur 3.46438 -11.0848 -25.5547
ltibia 18.7763
lfoot -9.412 5.45239
ltoes -7.66959
1494
root 9.89034 17.7373 -0.284645 -7.47454 19.1001 3.93242
lowerback -1.84734 5.61483 6.41341
upperback -0.750489 7.35073 2.3878
thorax 0.742083 3.67153 -0.885322
lowerneck -13.5973 10.7062 6.61903
upperneck 9.48116 12.8756 1.85823
head 5.34891 6.65417 0.674171
rclavicle -3.18055e-015 -7.95139e-015
rhumerus 59.5951 62.4278 -30.9732
rradius 125.863
rwrist -29.4576
rhand -31.9326 33.9245
rfingers 7.12502
rthumb -5.18365 4.00794
lclavicle -3.18055e-015 -7.95139e-015
lhumerus 53.5415 12.6114 61.4619
lradius 37.7539
lwrist 70.1751
lhand -21.8941 33.2432
lfingers 7.12502
lthumb 4.51107 63.1751
rfemur 11.7356 -7.53219 15.3716
rtibia 16.725
rfoot -22.7779 -28.5713
rtoes 8.57484
lfemur 3.50465 -11.071 -25.7611
ltibia 18.8325
lfoot -9.496 5.43636
ltoes -7.25034
1495
root 9.883 17.734 -0.291144 -7.49179 19.0704 3.76269
lowerback -1.92116 5.4037 6.57927
upperback -0.559281 7.04877 2.58797
thorax 0.956303 3.5296 -0.765134
lowerneck -13.9219 10.8516 5.90313
upperneck 9.58424 13.1552 2.05057
head 5.37685 6.77953 0.879232
rclavicle 5.04913e-014 2.38542e-014
rhumerus 59.6407 62.675 -30.8573
rradius 126.319
rwrist -29.9579
rhand -31.6352 33.5978
rfingers 7.12502
rthumb -4.89653 3.67435
lclavicle 5.04913e-014 2.38542e-014
lhumerus 52.8993 13.1739 61.2327
lradius 37.9982
lwrist 70.1099
lhand -21.9079 33.4933
lfingers 7.12502
lthumb 4.49772 63.4255
rfemur 11.6867 -7.63906 15.5343
rtibia 16.6881
rfoot -22.6813 -28.5138
rtoes 8.60848
lfemur 3.49232 -10.8114 -25.5438
ltibia 18.8043
lfoot -9.40379 5.33811
ltoes -8.72958
1496
root 9.88052 17.7311 -0.303796 -7.50276 18.9793 3.64055
lowerback -1.79199 5.32532 6.82982
upperback -0.55178 6.95085 2.61695
thorax 0.911538 3.48011 -0.887455
lowerneck -13.9491 10.8694 5.69511
upperneck 9.64941 13.2142 2.07557
head 5.38682 6.80366 0.924938
rclavicle 1.32788e-013 3.65764e-014
rhumerus 58.6165 62.9642 -31.8039
rradius 126.652
rwrist -30.3203
rhand -31.1401 33.2771
rfingers 7.12502
rthumb -4.41841 3.34317
lclavicle 1.32788e-013 3.65764e-014
lhumerus 52.4774 13.3288 61.1792
lradius 37.7418
lwrist 69.8979
lhand -21.4541 33.0181
lfingers 7.12502
lthumb 4.93591 62.9406
rfemur 11.5986 -7.65363 15.6492
rtibia 16.7027
rfoot -22.4994 -28.4851
rtoes 8.35614
lfemur 3.45004 -10.6422 -25.4072
ltibia 18.8084
lfoot -9.38503 5.36355
ltoes -9.58404
1497
root 9.87628 17.7342 -0.309864 -7.73951 18.7298 3.28401
lowerback -1.63627 5.3377 7.31509
upperback -0.469247 6.96759 2.66399
thorax 0.962138 3.49177 -1.109
lowerneck -14.1007 10.8477 5.66069
upperneck 9.90273 13.1702 2.1468
head 5.48394 6.78874 0.965456
rclavicle -6.75868e-014 -1.11319e-014
rhumerus 57.5042 63.1567 -32.8248
rradius 127.047
rwrist -30.8935
rhand -30.8613 32.6017
rfingers 7.12502
rthumb -4.14916 2.66232
lclavicle -6.75868e-014 -1.11319e-014
lhumerus 52.1517 13.3248 60.9845
lradius 37.4802
lwrist 69.7095
lhand -20.8236 32.4849
lfingers 7.12502
lthumb 5.54464 62.3924
rfemur 11.6109 -7.58082 16.0597
rtibia 16.8242
rfoot -22.2349 -28.5125
rtoes 7.52953
lfemur 3.55815 -10.5573 -25.0307
ltibia 18.8057
lfoot -9.44615 5.52119
ltoes -10.1344
1498
root 9.86914 17.7329 -0.311485 -7.84865 18.5364 3.0818
lowerback -1.71936 5.31145 7.52
upperback -0.298554 6.90893 2.73919
thorax 1.19573 3.4727 -1.12531
lowerneck -14.1851 10.9408 5.84495
upperneck 9.96615 13.2825 1.9093
head 5.54779 6.83245 0.88695
rclavicle 1.15295e-014 -1.59028e-014
rhumerus 56.8792 63.2563 -33.3401
rradius 127.546
rwrist -31.8247
rhand -30.5718 31.7547
rfingers 7.12502
rthumb -3.86968 1.81007
lclavicle 1.15295e-014 -1.59028e-014
lhumerus 51.6716 13.4051 60.688
lradius 37.4594
lwrist 69.5518
lhand -20.983 32.5553
lfingers 7.12502
lthumb 5.39079 62.4668
rfemur 11.5412 -7.5222 16.3308
rtibia 17.0225
rfoot -22.3301 -28.4124
rtoes 7.13222
lfemur 3.62712 -10.4628 -24.7816
ltibia 18.6846
lfoot -9.3289 5.5906
ltoes -11.0739
